#!OML:ASF X:\für Bonn\!DataBase\2005_08_11_Bastian_Final\c3d\Bastian.ASF
:FULLY-SPECIFIED
:DEGREES
63
root -6.69557 16.2007 2.24575 161.64 -33.3751 -173.818
lowerback 19.7943 -2.03711 -1.47852
upperback 7.69698 -3.9395 3.23367
thorax -2.40082 -2.51799 5.14256
lowerneck 1.75882 -16.2773 -6.68372
upperneck -12.4461 -21.5217 15.6131
head -1.51483 -11.3633 5.65665
rclavicle 1.02921e-013 -5.76476e-015
rhumerus -361.494 22.7712 -425.373
rradius 108.9
rwrist 1.85044
rhand -51.9528 755.548
rfingers 7.12502
rthumb -24.4623 7.09041
lclavicle 1.02921e-013 -5.76476e-015
lhumerus 56.1334 -20.8811 56.0486
lradius 89.7142
lwrist -134.242
lhand -20.3351 17.9977
lfingers 7.12502
lthumb 6.01628 47.8923
rfemur -20.2009 6.72935 11.0334
rtibia 53.1099
rfoot -11.5381 8.10507
rtoes -20.8263
lfemur 9.90194 -5.46915 -13.7665
ltibia 44.7955
lfoot -31.8492 -11.6555
ltoes -8.7123
64
root -6.68437 16.1454 2.2102 161.603 -33.8134 -173.917
lowerback 20.0656 -2.07381 -1.40255
upperback 7.6349 -3.96708 3.23281
thorax -2.60848 -2.52283 5.12768
lowerneck 1.69699 -16.3923 -6.9357
upperneck -12.3809 -21.6786 15.7222
head -1.42833 -11.4308 5.69338
rclavicle -4.55217e-014 -8.54774e-015
rhumerus -359.323 22.2594 -423.899
rradius 108.688
rwrist 2.11762
rhand -52.2586 756.063
rfingers 7.12502
rthumb -24.7553 7.64524
lclavicle -4.55217e-014 -8.54774e-015
lhumerus 57.5039 -19.6797 55.5392
lradius 89.68
lwrist -134.295
lhand -20.0871 18.3785
lfingers 7.12502
lthumb 6.25571 48.2661
rfemur -20.5729 6.46904 10.6565
rtibia 53.8353
rfoot -11.7905 8.86798
rtoes -20.5165
lfemur 9.33915 -5.8048 -13.9076
ltibia 46.116
lfoot -32.1655 -11.6366
ltoes -8.66602
65
root -6.67237 16.0873 2.17225 161.554 -34.2699 -173.999
lowerback 20.3398 -2.10055 -1.29363
upperback 7.57441 -3.97481 3.23808
thorax -2.81938 -2.5176 5.09688
lowerneck 1.66127 -16.5195 -7.22734
upperneck -12.3755 -21.8507 15.8719
head -1.35211 -11.5094 5.75001
rclavicle -1.18774e-014 -1.19271e-014
rhumerus -357.154 21.685 -422.313
rradius 108.387
rwrist 2.39902
rhand -52.6244 756.64
rfingers 7.12502
rthumb -25.1059 8.27046
lclavicle -1.18774e-014 -1.19271e-014
lhumerus 59.0034 -18.4563 54.9446
lradius 89.5641
lwrist -134.281
lhand -19.724 18.8045
lfingers 7.12502
lthumb 6.60628 48.6814
rfemur -20.9672 6.18426 10.3139
rtibia 54.7053
rfoot -12.0659 9.48726
rtoes -20.2665
lfemur 8.75995 -6.14385 -14.0112
ltibia 47.4728
lfoot -32.4502 -11.6672
ltoes -8.67413
66
root -6.66052 16.0243 2.13103 161.512 -34.7042 -174.058
lowerback 20.5769 -2.13084 -1.15171
upperback 7.5137 -3.97911 3.23835
thorax -3.01437 -2.51008 5.03846
lowerneck 1.59942 -16.6581 -7.4697
upperneck -12.3605 -22.0376 15.981
head -1.27735 -11.5944 5.78568
rclavicle -4.27387e-015 -1.03368e-014
rhumerus -355.007 21.0046 -420.733
rradius 108.044
rwrist 2.66308
rhand -52.9634 757.268
rfingers 7.12502
rthumb -25.4307 8.94423
lclavicle -4.27387e-015 -1.03368e-014
lhumerus 60.4 -17.2345 54.3528
lradius 89.4561
lwrist -134.17
lhand -19.3866 19.2103
lfingers 7.12502
lthumb 6.93197 49.0768
rfemur -21.4118 5.81905 10.0223
rtibia 55.7347
rfoot -12.3903 10.019
rtoes -20.2111
lfemur 8.15971 -6.43037 -14.0469
ltibia 48.8751
lfoot -32.6978 -11.8168
ltoes -8.35044
67
root -6.64798 15.9576 2.08762 161.493 -35.1271 -174.13
lowerback 20.8141 -2.1418 -1.00672
upperback 7.43346 -3.95238 3.2423
thorax -3.23319 -2.48513 4.97651
lowerneck 1.54035 -16.8008 -7.80135
upperneck -12.3286 -22.2315 16.1566
head -1.17819 -11.6818 5.84615
rclavicle 0 -2.22639e-014
rhumerus -352.981 20.2199 -419.18
rradius 107.698
rwrist 2.94957
rhand -53.2611 757.952
rfingers 7.12502
rthumb -25.7158 9.66919
lclavicle 0 -2.22639e-014
lhumerus 61.8232 -15.979 53.7436
lradius 89.2864
lwrist -133.947
lhand -19.0736 19.6039
lfingers 7.12502
lthumb 7.2341 49.4602
rfemur -21.9102 5.40963 9.74973
rtibia 56.9424
rfoot -12.825 10.4947
rtoes -20.4014
lfemur 7.53285 -6.67226 -14.0564
ltibia 50.3377
lfoot -32.9381 -12.0033
ltoes -8.08343
68
root -6.63426 15.8847 2.04152 161.477 -35.5834 -174.245
lowerback 21.0577 -2.13849 -0.851634
upperback 7.35784 -3.90408 3.20368
thorax -3.45596 -2.44825 4.85799
lowerneck 1.4848 -16.9763 -8.07775
upperneck -12.3345 -22.4678 16.3304
head -1.09162 -11.7942 5.8989
rclavicle -2.13694e-014 4.8901e-014
rhumerus -351.104 19.2447 -417.689
rradius 107.388
rwrist 3.17233
rhand -53.517 758.704
rfingers 7.12502
rthumb -25.9609 10.4569
lclavicle -2.13694e-014 4.8901e-014
lhumerus 63.2866 -14.7834 53.0608
lradius 89.0742
lwrist -133.633
lhand -18.6628 20.1084
lfingers 7.12502
lthumb 7.63066 49.9508
rfemur -22.408 4.83677 9.46647
rtibia 58.3335
rfoot -13.3267 10.9335
rtoes -20.6113
lfemur 6.90388 -6.97157 -14.112
ltibia 51.8817
lfoot -33.1843 -12.2299
ltoes -7.89745
69
root -6.6172 15.8033 1.99333 161.484 -36.0154 -174.342
lowerback 21.2702 -2.13302 -0.706476
upperback 7.26686 -3.85073 3.18832
thorax -3.67709 -2.40859 4.76708
lowerneck 1.45955 -17.1437 -8.39752
upperneck -12.3501 -22.6941 16.4973
head -1.00891 -11.9001 5.95773
rclavicle 6.83819e-014 -3.69739e-014
rhumerus -349.285 18.1657 -416.206
rradius 107.029
rwrist 3.36434
rhand -53.7284 759.417
rfingers 7.12502
rthumb -26.1633 11.1998
lclavicle 6.83819e-014 -3.69739e-014
lhumerus 64.6816 -13.5342 52.408
lradius 88.8149
lwrist -133.32
lhand -18.243 20.6486
lfingers 7.12502
lthumb 8.03578 50.4758
rfemur -22.9957 4.14583 9.25037
rtibia 59.9013
rfoot -13.9466 11.2076
rtoes -20.9661
lfemur 6.20173 -7.25159 -14.1062
ltibia 53.5231
lfoot -33.4087 -12.5562
ltoes -7.47607
70
root -6.595 15.7137 1.94379 161.505 -36.4366 -174.437
lowerback 21.4971 -2.10262 -0.573275
upperback 7.17135 -3.76532 3.1677
thorax -3.91252 -2.35277 4.67062
lowerneck 1.45113 -17.3194 -8.67929
upperneck -12.3908 -22.9305 16.6815
head -0.936141 -12.0149 6.01836
rclavicle -4.91495e-014 3.29983e-014
rhumerus -347.494 16.9224 -414.803
rradius 106.598
rwrist 3.58611
rhand -53.9376 759.994
rfingers 7.12502
rthumb -26.3636 11.8063
lclavicle -4.91495e-014 3.29983e-014
lhumerus 66.0171 -12.3185 51.8567
lradius 88.5359
lwrist -133.097
lhand -17.9156 21.2629
lfingers 7.12502
lthumb 8.35175 51.0778
rfemur -23.6515 3.39215 9.06645
rtibia 61.6047
rfoot -14.646 11.3962
rtoes -21.3153
lfemur 5.43405 -7.50041 -14.0346
ltibia 55.263
lfoot -33.6046 -12.9936
ltoes -6.87903
71
root -6.57125 15.6186 1.8927 161.53 -36.8401 -174.566
lowerback 21.7466 -2.05753 -0.452559
upperback 7.07052 -3.66209 3.12761
thorax -4.16687 -2.28755 4.55702
lowerneck 1.53397 -17.4801 -8.96755
upperneck -12.5018 -23.147 16.9061
head -0.893427 -12.1261 6.10471
rclavicle -1.88845e-015 -1.63003e-014
rhumerus -345.803 15.5927 -413.412
rradius 106.202
rwrist 3.80641
rhand -54.1319 760.387
rfingers 7.12502
rthumb -26.5496 12.2281
lclavicle -1.88845e-015 -1.63003e-014
lhumerus 67.2646 -11.1144 51.3215
lradius 88.2436
lwrist -132.962
lhand -17.5745 21.9471
lfingers 7.12502
lthumb 8.68092 51.7486
rfemur -24.3159 2.58393 8.88683
rtibia 63.3878
rfoot -15.4164 11.4649
rtoes -21.8401
lfemur 4.65569 -7.67063 -13.933
ltibia 57.0691
lfoot -33.8577 -13.4388
ltoes -6.73589
72
root -6.54948 15.5204 1.83997 161.587 -37.2176 -174.722
lowerback 21.964 -1.99498 -0.348682
upperback 6.95849 -3.53625 3.08201
thorax -4.41772 -2.21029 4.43872
lowerneck 1.73429 -17.6417 -9.17995
upperneck -12.7205 -23.3637 17.1083
head -0.911653 -12.2456 6.19614
rclavicle 1.37957e-013 -3.45885e-014
rhumerus -344.164 14.1922 -412.046
rradius 105.801
rwrist 4.08461
rhand -54.3662 760.576
rfingers 7.12502
rthumb -26.7738 12.451
lclavicle 1.37957e-013 -3.45885e-014
lhumerus 68.4557 -9.96324 50.8672
lradius 87.89
lwrist -132.972
lhand -17.3304 22.6964
lfingers 7.12502
lthumb 8.91649 52.488
rfemur -24.9862 1.75398 8.6941
rtibia 65.1832
rfoot -16.2261 11.5189
rtoes -22.252
lfemur 3.86836 -7.77799 -13.8164
ltibia 58.8982
lfoot -34.1177 -13.8921
ltoes -6.74164
